{"title":"Lost.In.Space.1998.1080p.BluRay.x264-HDCLASSiCS","uid":5443791,"size":9395721404,"categoryP":"video","categoryS":"hd___movies","magnet":"?xt=urn:btih:102a6331aefad7d21cc735a46525144fca7d44e9&amp;dn=Lost.In.Space.1998.1080p.BluRay.x264-HDCLASSiCS&amp;tr=udp%3A%2F%2Ftracker.openbittorrent.com%3A80&amp;tr=udp%3A%2F%2Fopen.demonii.com%3A1337&amp;tr=udp%3A%2F%2Ftracker.coppersurfer.tk%3A6969&amp;tr=udp%3A%2F%2Fexodus.desync.com%3A6969","seeders":0,"leechers":1,"uploader":"brunohll","files":9,"time":1268953640,"description":"Lost In Space (1998)\n\nLinks : http://www.imdb.com/title/tt0120738/\n\nVideo : 1920*800 @ 8111 Kbps\n\nAudio : DTS 1509 Kbps\n\nSubs : English\n\nNote :\n\nGeneral\nComplete name                    : hdc-lis-1080.mkv\nFormat                           : Matroska\nFile size                        : 8.75 GiB\nDuration                         : 2h 10mn\nOverall bit rate                 : 9 622 Kbps\nEncoded date                     : UTC 2009-08-25 22:02:03\nWriting application              : mkvmerge v2.9.7 ('Tenderness') built on Jul  1 2009 18:43:35\nWriting library                  : libebml v0.7.7 + libmatroska v0.8.1\n\nVideo\nID                               : 1\nFormat                           : AVC\nFormat/Info                      : Advanced Video Codec\nFormat profile                   : &lt;a class=&quot;__cf_email__&quot; href=&quot;/cdn-cgi/l/email-protection&quot; data-cfemail=&quot;6e260709062e225a405f&quot;&gt;[email&amp;#160;protected]&lt;/a&gt;&lt;script cf-hash='f9e31' type=&quot;text/javascript&quot;&gt;\n/* &lt;![CDATA[ */!function(){try{var t=&quot;currentScript&quot;in document?document.currentScript:function(){for(var t=document.getElementsByTagName(&quot;script&quot;),e=t.length;e--;)if(t[e].getAttribute(&quot;cf-hash&quot;))return t[e]}();if(t&amp;&amp;t.previousSibling){var e,r,n,i,c=t.previousSibling,a=c.getAttribute(&quot;data-cfemail&quot;);if(a){for(e=&quot;&quot;,r=parseInt(a.substr(0,2),16),n=2;a.length-n;n+=2)i=parseInt(a.substr(n,2),16)^r,e+=String.fromCharCode(i);e=document.createTextNode(e),c.parentNode.replaceChild(e,c)}}}catch(u){}}();/* ]]&gt; */&lt;/script&gt;\nFormat settings, CABAC           : Yes\nFormat settings, ReFrames        : 5 frames\nMuxing mode                      : Container profile=&lt;a class=&quot;__cf_email__&quot; href=&quot;/cdn-cgi/l/email-protection&quot; data-cfemail=&quot;693c070207061e07295d4758&quot;&gt;[email&amp;#160;protected]&lt;/a&gt;&lt;script cf-hash='f9e31' type=&quot;text/javascript&quot;&gt;\n/* &lt;![CDATA[ */!function(){try{var t=&quot;currentScript&quot;in document?document.currentScript:function(){for(var t=document.getElementsByTagName(&quot;script&quot;),e=t.length;e--;)if(t[e].getAttribute(&quot;cf-hash&quot;))return t[e]}();if(t&amp;&amp;t.previousSibling){var e,r,n,i,c=t.previousSibling,a=c.getAttribute(&quot;data-cfemail&quot;);if(a){for(e=&quot;&quot;,r=parseInt(a.substr(0,2),16),n=2;a.length-n;n+=2)i=parseInt(a.substr(n,2),16)^r,e+=String.fromCharCode(i);e=document.createTextNode(e),c.parentNode.replaceChild(e,c)}}}catch(u){}}();/* ]]&gt; */&lt;/script&gt;\nCodec ID                         : V_MPEG4/ISO/AVC\nDuration                         : 2h 10mn\nBit rate                         : 7 921 Kbps\nNominal bit rate                 : 8 111 Kbps\nWidth                            : 1 920 pixels\nHeight                           : 800 pixels\nDisplay aspect ratio             : 2.400\nFrame rate                       : 23.976 fps\nResolution                       : 24 bits\nColorimetry                      : 4:2:0\nScan type                        : Progressive\nBits/(Pixel*Frame)               : 0.215\nStream size                      : 7.19 GiB (82%)\nWriting library                  : x264 core 68 r1183M f21daff\nLanguage                         : English\n\nAudio\nID                               : 2\nFormat                           : DTS\nFormat/Info                      : Digital Theater Systems\nCodec ID                         : A_DTS\nDuration                         : 2h 10mn\nBit rate mode                    : Constant\nBit rate                         : 1 510 Kbps\nChannel(s)                       : 6 channels\nChannel positions                : Front: L C R, Surround: L R, LFE\nSampling rate                    : 48.0 KHz\nResolution                       : 24 bits\nStream size                      : 1.37 GiB (16%)\nTitle                            : DTS 1509\nLanguage                         : English\n\n\n\n\n","torrent":{"xt":"urn:btih:102a6331aefad7d21cc735a46525144fca7d44e9","amp;dn":"Lost.In.Space.1998.1080p.BluRay.x264-HDCLASSiCS","amp;tr":["udp%3A%2F%2Ftracker.openbittorrent.com%3A80","udp%3A%2F%2Fopen.demonii.com%3A1337","udp%3A%2F%2Ftracker.coppersurfer.tk%3A6969","udp%3A%2F%2Fexodus.desync.com%3A6969"],"infoHash":"102a6331aefad7d21cc735a46525144fca7d44e9","infoHashBuffer":{"type":"Buffer","data":[16,42,99,49,174,250,215,210,28,199,53,164,101,37,20,79,202,125,68,233]},"announce":[],"urlList":[]}}